# xmcd
#
# Track frame offsets: 
#        150
#        17592
#        43707
#        59272
#        79392
#        100920
#        123955
#        143795
#        166415
#        180975
#        195882
#
# Disc length: 2941 seconds
#
# Revision: 0
# Processed by: cddbd v1.5.2PL0 Copyright (c) Steve Scherf et al.
# Submitted via: ExactAudioCopy v0.99pb4
#
DISCID=860b7b0b
DTITLE=Buddaheads - Play Hard
DYEAR=1996
DGENRE=Blues/Rock
TTITLE0=Crashin' In
TTITLE1=Ain't It Time
TTITLE2=One Domino
TTITLE3=Somewhere and Sunset
TTITLE4=Through My Eyes
TTITLE5=Storms That Follow You
TTITLE6=Just Like That
TTITLE7=Dance Maria
TTITLE8=Heaven In Between
TTITLE9=I Feel Safe
TTITLE10=Song No More
EXTD=
EXTT0=
EXTT1=
EXTT2=
EXTT3=
EXTT4=
EXTT5=
EXTT6=
EXTT7=
EXTT8=
EXTT9=
EXTT10=
PLAYORDER=
